<?xml version="1.0" standalone="no"?>
<!DOCTYPE svg PUBLIC "-//W3C//DTD SVG 20010904//EN"
 "http://www.w3.org/TR/2001/REC-SVG-20010904/DTD/svg10.dtd">
<svg version="1.0" xmlns="http://www.w3.org/2000/svg"
 width="512.000000pt" height="512.000000pt" viewBox="0 0 512.000000 512.000000"
 preserveAspectRatio="xMidYMid meet">
<metadata>
Created by potrace 1.14, written by Peter Selinger 2001-2017
</metadata>
<g transform="translate(0.000000,512.000000) scale(0.100000,-0.100000)"
fill="#000000" stroke="none">
<path d="M576 5105 c-5 -13 5 -20 27 -16 4 0 7 -4 7 -10 0 -7 -9 -9 -21 -6
-19 5 -19 4 -7 -11 22 -27 51 -75 41 -69 -17 11 -7 -35 11 -48 10 -8 13 -14 6
-17 -6 -2 -3 -12 9 -25 11 -11 17 -23 14 -26 -3 -3 2 -16 11 -28 12 -18 13
-26 3 -38 -9 -12 -9 -13 1 -7 19 11 35 -3 21 -20 -8 -10 -8 -14 0 -14 6 0 11
-5 11 -11 0 -5 -6 -7 -12 -3 -9 5 -9 2 1 -9 14 -18 26 -23 16 -8 -3 5 -2 12 3
15 5 3 8 -8 8 -25 0 -16 -4 -29 -9 -29 -6 0 -7 -3 -4 -6 4 -4 13 -1 22 6 17
14 19 7 5 -20 -7 -13 -7 -21 0 -25 6 -4 7 -11 4 -17 -4 -7 -2 -8 5 -4 9 6 9
12 -1 24 -9 12 -6 11 10 -2 23 -20 30 -32 12 -21 -5 3 -10 2 -10 -4 0 -5 5
-13 10 -16 6 -4 8 -16 4 -27 -4 -15 -3 -18 7 -13 9 6 11 3 6 -8 -3 -10 -2 -17
2 -17 5 0 12 -7 15 -16 5 -14 4 -15 -9 -4 -21 18 -19 7 6 -21 11 -13 18 -31
16 -41 -3 -10 -2 -16 2 -14 4 3 13 -4 20 -16 7 -11 9 -18 4 -15 -4 3 -8 -5 -8
-18 0 -13 5 -23 10 -22 6 1 8 -7 7 -17 -3 -18 -2 -18 14 -5 16 13 16 12 5 -8
-10 -20 -9 -22 6 -16 14 5 16 3 6 -7 -9 -10 -7 -17 10 -32 12 -11 16 -17 9
-13 -8 4 -11 0 -9 -14 2 -11 6 -23 9 -27 4 -3 2 -17 -3 -31 -5 -14 -6 -29 -3
-35 4 -6 2 -8 -4 -4 -6 3 -14 1 -18 -5 -3 -6 0 -15 7 -20 12 -7 12 -9 0 -9 -8
0 -11 -6 -7 -16 5 -13 3 -14 -7 -6 -10 8 -13 6 -13 -8 0 -10 3 -17 6 -15 4 2
7 -2 7 -9 0 -8 -7 -12 -15 -9 -12 5 -12 2 -3 -14 8 -16 7 -24 -3 -32 -8 -7
-13 -27 -12 -46 1 -24 -2 -31 -10 -24 -8 7 -11 -5 -10 -45 2 -49 0 -54 -16
-45 -16 9 -17 7 -8 -17 9 -23 8 -25 -6 -20 -12 5 -14 3 -8 -6 14 -19 11 -48
-6 -58 -8 -5 -11 -10 -6 -10 5 0 2 -8 -5 -17 -12 -15 -12 -16 1 -8 13 7 13 6
2 -7 -9 -12 -10 -18 -2 -23 8 -5 4 -12 -10 -22 -15 -10 -19 -21 -14 -35 3 -12
2 -18 -3 -15 -6 4 -9 -9 -8 -29 2 -29 0 -34 -14 -29 -12 5 -13 4 -4 -6 10 -10
9 -15 -5 -26 -9 -8 -11 -11 -3 -7 10 5 12 3 5 -7 -13 -21 -16 -51 -4 -44 5 3
10 1 10 -6 0 -6 -8 -9 -19 -6 -15 3 -17 0 -13 -16 3 -12 1 -18 -5 -14 -5 3
-10 0 -10 -8 0 -8 4 -12 9 -9 4 3 8 0 8 -5 0 -6 -4 -11 -8 -11 -5 0 -9 -14 -9
-31 0 -17 -6 -35 -14 -40 -11 -7 -11 -9 -1 -9 7 0 10 -5 7 -10 -4 -6 -10 -8
-14 -6 -4 3 -8 -1 -8 -9 0 -8 3 -12 7 -10 4 2 7 -3 7 -11 0 -9 -6 -13 -15 -9
-12 4 -12 3 -3 -9 9 -11 9 -16 0 -22 -8 -5 -9 -3 -4 6 5 9 4 11 -4 6 -9 -6 -9
-11 1 -24 11 -13 11 -14 -1 -7 -11 6 -13 4 -8 -8 4 -10 1 -17 -6 -17 -8 0 -6
-4 3 -10 12 -8 12 -10 1 -10 -10 0 -11 -3 -2 -13 15 -19 1 -30 -17 -14 -13 10
-14 9 -5 -8 9 -15 8 -22 -5 -33 -16 -12 -15 -13 2 -7 20 6 20 6 0 -16 -10 -12
-13 -19 -7 -15 9 5 11 2 7 -8 -3 -9 -11 -13 -16 -10 -6 4 -5 -3 1 -15 10 -18
9 -20 -6 -14 -15 6 -16 4 -5 -9 10 -13 10 -18 1 -24 -8 -5 -9 -3 -4 6 6 9 4
11 -5 5 -10 -6 -9 -11 5 -22 17 -12 18 -13 1 -13 -9 0 -14 -4 -11 -10 3 -5 0
-10 -7 -10 -9 0 -9 -3 2 -10 13 -8 8 -14 -11 -12 -3 1 -3 -12 -1 -29 4 -25 2
-28 -14 -23 -18 5 -18 5 -1 -6 14 -9 16 -15 6 -26 -6 -7 -14 -12 -18 -10 -4 3
-7 -13 -6 -35 1 -21 -4 -39 -9 -39 -6 0 -5 -4 2 -9 11 -6 10 -10 -3 -15 -11
-4 -15 -13 -12 -26 3 -13 0 -20 -10 -20 -8 0 -11 -5 -8 -10 4 -6 12 -7 18 -3
7 4 6 0 -2 -10 -7 -9 -10 -17 -7 -17 4 0 -2 -9 -12 -21 -12 -12 -18 -32 -17
-50 1 -16 -1 -29 -6 -29 -5 0 -5 -7 -2 -17 4 -10 2 -14 -4 -10 -5 3 -10 0 -10
-8 0 -8 5 -11 11 -8 6 3 8 3 4 -2 -4 -4 -2 -15 5 -24 11 -14 10 -14 -6 -2 -9
8 -21 11 -24 7 -4 -4 -2 -11 6 -15 10 -7 9 -10 -3 -14 -9 -4 -16 -12 -16 -19
0 -10 2 -10 9 0 7 11 9 10 14 -3 4 -9 3 -13 -3 -10 -6 3 -10 1 -10 -5 0 -6 -6
-8 -12 -4 -7 4 -10 4 -6 -1 4 -4 3 -16 -3 -26 -6 -13 -6 -19 1 -19 5 0 10 5
10 12 0 6 3 8 7 4 5 -4 0 -13 -9 -20 -10 -7 -16 -23 -14 -39 2 -15 -1 -30 -7
-34 -6 -4 -7 -1 -2 7 5 9 4 11 -4 6 -9 -6 -9 -11 1 -24 11 -13 10 -15 -4 -9
-15 5 -16 2 -8 -19 6 -14 6 -23 1 -20 -5 3 -12 -1 -15 -10 -4 -10 -2 -13 7 -8
8 5 8 2 -2 -9 -7 -9 -11 -23 -8 -31 4 -10 1 -13 -7 -10 -7 3 -13 -2 -13 -10 0
-8 3 -13 7 -11 4 2 7 -2 7 -10 0 -8 -4 -12 -9 -9 -7 4 -13 -35 -9 -59 1 -5 -4
-5 -10 -1 -7 4 -10 1 -7 -7 3 -8 -2 -20 -11 -27 -9 -8 -11 -11 -5 -8 7 3 15
-1 18 -10 9 -24 7 -31 -4 -14 -8 13 -10 12 -10 -2 0 -10 -4 -18 -9 -18 -4 0
-6 -11 -3 -25 2 -14 0 -25 -6 -25 -11 0 -11 -18 1 -37 4 -6 2 -15 -4 -19 -8
-5 -9 -3 -4 6 5 8 3 11 -5 8 -7 -2 -14 -12 -16 -21 -1 -11 2 -14 9 -10 7 4 6
0 -1 -10 -8 -9 -11 -21 -7 -27 3 -5 -2 -10 -12 -10 -10 0 -14 -4 -8 -8 18 -13
17 -35 -1 -28 -15 6 -15 4 -3 -11 12 -15 12 -16 -5 -9 -19 7 -19 6 -2 -13 17
-18 17 -20 -1 -30 -11 -6 -13 -11 -5 -11 7 0 10 -5 7 -10 -5 -8 -11 -8 -19 -1
-9 8 -13 7 -13 -4 0 -8 4 -12 9 -9 4 3 8 -2 8 -10 0 -8 -5 -18 -10 -21 -6 -3
-8 -17 -6 -31 4 -18 0 -24 -12 -24 -13 0 -14 -2 -4 -9 11 -6 10 -10 -5 -15
-17 -7 -17 -8 0 -21 17 -12 17 -14 1 -17 -10 -2 -18 -14 -20 -31 -2 -18 1 -25
9 -21 7 3 5 0 -4 -8 -22 -19 -29 -44 -16 -58 9 -10 9 -11 -2 -5 -10 6 -13 4
-8 -7 3 -9 0 -21 -6 -28 -9 -10 -9 -11 2 -5 10 6 12 4 7 -4 -5 -7 -14 -10 -20
-8 -13 5 -15 -20 -4 -39 10 -15 -8 -38 -23 -30 -9 5 -9 3 1 -6 8 -7 16 -19 18
-27 3 -12 1 -12 -15 -1 -10 8 -15 10 -11 6 4 -5 2 -16 -5 -24 -10 -13 -9 -15
7 -8 19 6 19 6 3 -12 -13 -15 -14 -21 -4 -32 6 -7 7 -10 2 -7 -6 3 -17 -4 -24
-15 -12 -19 -11 -20 6 -14 17 6 17 5 1 -7 -10 -8 -15 -17 -11 -20 3 -4 2 -7
-4 -7 -5 0 -9 -19 -8 -42 2 -24 1 -37 -2 -30 -9 24 -18 11 -19 -28 -1 -27 2
-38 10 -33 6 4 5 0 -2 -9 -10 -13 -10 -19 3 -32 9 -9 15 -26 13 -37 -2 -13 3
-24 12 -26 13 -4 13 -3 0 7 -10 8 -11 10 -2 8 8 -2 12 -6 10 -9 -2 -3 4 -14
12 -24 8 -11 10 -16 3 -12 -8 5 -11 0 -10 -13 1 -11 8 -20 17 -20 13 0 13 -1
0 -10 -12 -8 -12 -10 5 -10 17 0 17 -2 5 -10 -8 -5 -10 -10 -4 -10 7 0 15 -7
18 -16 3 -8 2 -12 -4 -9 -6 3 -10 1 -10 -4 0 -6 4 -11 9 -11 5 0 12 -7 15 -16
3 -8 2 -13 -2 -10 -5 3 -9 -1 -9 -8 0 -8 6 -12 14 -9 9 4 11 0 6 -13 -5 -13
-3 -15 8 -9 11 6 12 5 1 -6 -15 -16 -16 -29 -1 -29 5 0 7 4 4 10 -3 6 1 7 10
3 10 -3 13 -8 6 -12 -12 -8 -11 -51 1 -51 4 0 8 -9 8 -19 0 -11 4 -21 9 -23 5
-1 11 -12 13 -23 1 -11 8 -23 13 -27 6 -5 5 -8 -3 -8 -10 0 -10 -3 0 -14 7 -8
16 -12 20 -10 9 6 4 -24 -7 -33 -4 -4 -5 -2 0 6 5 10 4 12 -4 7 -6 -4 -9 -12
-5 -17 3 -5 9 -7 14 -4 4 3 11 -2 14 -11 4 -10 2 -13 -7 -8 -9 6 -9 5 0 -7 6
-8 13 -18 15 -24 1 -5 6 -9 10 -8 3 1 2 -12 -2 -30 -9 -29 -8 -30 5 -13 11 15
15 16 15 5 0 -8 -6 -21 -13 -28 -9 -11 -9 -13 0 -7 8 4 13 2 13 -6 0 -9 3 -9
10 2 5 8 10 10 10 5 0 -6 -5 -16 -12 -23 -9 -9 -9 -12 1 -12 7 0 9 -5 6 -10
-3 -6 -2 -10 3 -10 6 0 8 -9 5 -20 -3 -12 0 -20 7 -20 7 0 10 -7 6 -16 -6 -15
-4 -15 10 -3 16 13 16 12 6 -8 -15 -28 -15 -36 0 -27 8 5 9 2 5 -9 -4 -12 -1
-17 11 -18 9 0 12 -3 5 -5 -9 -4 -9 -12 -1 -32 16 -38 25 -46 33 -31 6 8 4 10
-6 5 -8 -4 -6 -1 5 8 10 8 16 22 13 30 -4 10 -1 13 7 10 9 -4 11 4 8 28 -5 31
-4 32 14 18 13 -10 12 -7 -4 11 -16 19 -19 26 -8 26 8 0 12 -5 9 -10 -3 -6 -1
-7 6 -3 6 4 9 18 7 32 -3 13 -1 24 3 24 10 0 8 31 -3 49 -7 10 -4 11 11 3 18
-10 19 -8 15 20 -4 24 -2 29 9 23 12 -8 12 -6 0 8 -11 14 -11 18 2 23 9 3 18
13 21 21 6 14 4 14 -11 2 -12 -10 -10 -3 7 26 17 28 19 36 7 26 -10 -8 -17 -9
-17 -3 0 6 5 14 10 17 6 4 7 12 3 18 -4 7 1 6 11 -2 15 -12 17 -12 14 0 -2 8
-7 17 -11 20 -5 3 -2 13 7 21 8 9 12 18 9 22 -3 3 0 13 8 23 8 9 9 14 2 10 -6
-4 -15 -2 -19 4 -4 7 -3 9 3 6 16 -10 48 42 34 56 -7 7 -7 16 0 29 5 10 7 23
4 28 -4 6 1 7 12 3 16 -6 17 -5 3 12 -8 10 -10 16 -3 12 9 -6 11 2 9 27 -2 30
0 34 12 23 13 -10 14 -9 2 13 -12 23 -12 24 4 11 14 -12 16 -12 10 2 -3 8 0
25 6 37 10 18 10 21 -2 14 -11 -6 -11 -5 0 8 7 9 11 27 8 41 -3 19 -1 24 10
20 10 -4 12 0 7 13 -4 11 -3 15 4 11 8 -5 10 7 7 35 -4 38 -3 40 10 23 13 -18
14 -18 9 8 -3 15 0 34 8 44 12 14 12 16 -1 8 -11 -6 -10 -3 3 12 9 11 14 23
10 27 -4 3 -7 15 -8 26 -1 14 2 17 11 9 9 -7 12 -2 10 25 -1 19 3 32 8 28 5
-3 6 2 3 12 -6 14 -3 17 9 12 15 -6 15 -4 1 18 -15 23 -15 24 6 20 12 -2 16
-1 9 2 -10 5 -10 9 0 22 10 12 10 14 1 8 -9 -5 -11 -2 -7 8 3 9 10 13 15 10 5
-3 6 3 2 12 -4 10 -2 15 4 11 5 -3 10 0 10 8 0 8 -4 12 -9 9 -4 -3 -8 -1 -8 5
0 5 6 11 12 13 8 3 12 19 10 44 -2 29 0 35 7 24 8 -11 11 -6 11 23 0 23 5 37
13 37 8 0 7 4 -3 10 -10 6 -11 10 -2 10 6 0 12 5 12 11 0 5 -5 7 -12 3 -7 -5
-8 -3 -4 5 5 7 14 10 21 7 9 -3 12 5 9 30 -2 25 0 33 9 28 9 -5 9 -4 0 6 -13
14 -6 43 8 34 5 -3 9 -2 10 3 0 4 2 16 4 26 2 9 -1 15 -6 12 -5 -4 -6 1 -3 9
3 9 10 13 15 10 12 -7 7 19 -5 27 -4 4 -3 15 4 25 9 15 10 16 6 2 -3 -12 -1
-15 10 -11 17 6 18 19 3 29 -8 4 -7 9 2 15 12 8 12 10 0 18 -10 6 -10 10 -1
13 7 2 13 19 15 38 2 19 8 36 14 38 6 2 8 8 5 14 -4 6 -2 13 4 17 17 10 19 46
2 43 -8 -2 -11 0 -7 5 5 4 13 9 18 9 5 1 12 2 15 3 4 0 0 9 -7 18 -10 11 -10
14 -1 9 7 -4 12 -1 12 9 0 10 -5 13 -12 9 -7 -5 -8 -3 -4 5 5 7 10 10 13 7 3
-3 15 1 27 9 26 19 33 19 33 0 0 -8 -4 -12 -9 -9 -4 3 -8 0 -8 -5 0 -6 5 -11
10 -11 6 0 10 -9 10 -20 0 -11 5 -20 10 -20 6 0 10 -13 10 -30 0 -16 5 -30 10
-30 6 0 10 -15 10 -32 0 -25 3 -29 10 -18 13 20 13 4 0 -20 -7 -13 -7 -21 2
-26 7 -5 8 -3 3 6 -5 8 -4 11 3 6 6 -4 8 -14 5 -23 -4 -10 -2 -14 5 -9 6 4 11
-1 11 -11 3 -64 19 -116 33 -107 6 4 5 -3 -2 -16 -10 -18 -9 -21 1 -15 9 6 11
3 6 -8 -3 -9 -1 -19 5 -23 7 -5 8 -2 3 6 -5 9 -4 11 4 6 7 -5 8 -13 3 -23 -11
-19 8 -65 24 -59 7 3 10 -3 7 -14 -3 -10 3 -30 12 -44 14 -20 15 -29 6 -40 -9
-11 -9 -16 0 -22 8 -5 10 -3 4 7 -7 12 -5 12 6 1 12 -11 12 -14 -1 -22 -11 -7
-12 -10 -2 -10 8 0 12 -6 9 -12 -2 -7 5 -19 17 -26 20 -12 20 -13 -4 -6 l-25
7 25 -22 c14 -13 20 -20 15 -17 -6 2 -11 -4 -11 -15 0 -17 8 -23 27 -21 4 1 4
-8 1 -20 -4 -16 -2 -19 9 -13 12 8 12 6 0 -8 -10 -13 -10 -17 -1 -17 9 0 9 -4
2 -13 -12 -14 10 -52 23 -39 5 4 5 2 1 -5 -3 -6 -2 -14 4 -18 15 -9 12 -28 -2
-19 -10 6 -10 4 0 -7 15 -16 16 -33 0 -23 -7 4 -8 3 -4 -5 4 -6 12 -9 17 -6 5
4 9 -5 9 -19 0 -14 5 -28 10 -31 6 -3 8 -18 6 -31 -4 -21 -3 -24 10 -14 9 8
14 9 14 2 0 -6 -5 -14 -11 -18 -8 -4 -4 -13 12 -25 20 -15 22 -20 11 -31 -11
-11 -12 -10 -7 4 4 10 3 18 -3 18 -6 0 -9 -8 -7 -17 1 -10 7 -17 11 -16 5 0
16 -6 24 -15 13 -14 12 -15 -3 -9 -9 3 -19 2 -22 -4 -4 -5 -1 -8 7 -7 8 2 12
-4 10 -15 -2 -11 4 -17 15 -18 10 0 13 -3 7 -5 -7 -3 -10 -14 -7 -24 3 -11 9
-17 14 -14 5 3 9 0 9 -5 0 -6 -5 -11 -12 -11 -6 0 -4 -6 7 -13 10 -8 15 -19
11 -25 -9 -15 4 -43 17 -35 6 4 8 0 4 -10 -4 -10 -1 -17 5 -17 6 0 8 -3 5 -6
-3 -4 -2 -16 4 -27 7 -13 7 -17 1 -13 -19 11 -23 -12 -5 -26 10 -7 19 -20 21
-28 2 -8 8 -16 13 -18 5 -2 9 -11 9 -20 0 -15 -2 -15 -10 -2 -8 12 -9 11 -7
-5 7 -36 18 -54 40 -61 19 -6 19 -7 3 -16 -16 -9 -16 -11 1 -25 10 -8 14 -12
8 -10 -5 3 -10 -7 -10 -22 0 -15 5 -28 12 -28 7 0 9 5 6 10 -3 6 -1 7 6 3 6
-4 9 -11 6 -16 -3 -5 -1 -12 5 -15 8 -5 7 -11 -1 -21 -9 -11 -9 -14 0 -14 7 0
9 -4 6 -10 -3 -5 -1 -10 4 -10 6 0 10 -3 10 -7 -4 -26 2 -43 14 -37 9 6 9 4 0
-7 -16 -16 -17 -33 -2 -23 8 5 10 -1 7 -20 -4 -22 -2 -26 10 -21 9 3 13 3 9
-1 -4 -4 -1 -14 6 -22 10 -13 9 -14 -3 -7 -12 6 -12 5 -3 -5 6 -7 9 -19 6 -27
-3 -8 3 -20 12 -27 18 -13 31 -51 14 -40 -13 8 -10 -8 5 -29 12 -16 38 -17
337 -15 l323 3 1 27 c1 15 -2 25 -7 22 -4 -3 -8 3 -8 13 0 11 -5 24 -12 31
-14 14 -20 45 -8 37 5 -3 5 7 1 22 -4 16 -12 28 -18 28 -6 0 -15 4 -20 9 -4 5
-3 6 3 3 15 -9 27 20 13 29 -6 3 -8 12 -5 19 3 9 -2 11 -17 8 -22 -5 -22 -5
-2 11 11 9 16 16 10 15 -22 -3 -27 2 -15 16 10 12 9 15 -6 15 -16 0 -17 2 -4
10 13 8 12 10 -3 10 -10 0 -16 4 -12 9 3 5 1 12 -5 16 -7 4 -6 13 1 27 6 11 7
18 2 15 -5 -3 -16 9 -26 26 l-17 32 20 -24 c24 -28 26 -20 4 14 -9 14 -14 32
-10 40 3 9 -3 19 -14 25 -11 6 -20 15 -20 21 0 6 5 7 10 4 6 -3 10 -2 10 3 0
5 -10 14 -22 21 -13 6 -15 9 -6 7 12 -4 15 -1 11 10 -3 7 -11 14 -18 14 -8 0
-10 9 -7 26 3 19 1 25 -7 20 -6 -4 -11 -3 -11 3 0 5 5 13 12 17 7 5 4 10 -11
16 -19 7 -21 11 -11 23 9 10 9 15 1 15 -6 0 -10 3 -10 8 3 20 -2 32 -12 26 -7
-4 -7 1 1 16 8 15 8 20 1 16 -7 -5 -11 3 -12 18 -1 14 -2 35 -3 46 0 10 -10
26 -21 33 -16 12 -17 18 -7 30 10 11 9 17 -5 28 -9 8 -14 9 -10 2 4 -6 3 -14
-2 -17 -10 -7 -9 20 2 30 4 4 7 12 7 18 0 6 -5 4 -11 -4 -8 -12 -10 -9 -6 13
3 18 -1 30 -11 36 -9 5 -13 15 -8 26 5 13 2 16 -10 11 -14 -5 -15 -4 -4 9 10
12 10 15 -1 15 -11 0 -11 2 1 10 13 8 13 10 -2 10 -21 0 -32 16 -17 26 8 5 9
3 4 -6 -5 -9 -4 -11 4 -6 9 6 9 11 0 22 -6 7 -15 11 -19 9 -5 -3 -5 8 0 25 6
23 5 30 -5 30 -7 0 -15 7 -18 14 -4 11 -1 13 11 10 9 -3 6 1 -7 9 -17 10 -20
16 -11 22 10 6 9 10 -4 17 -9 5 -16 14 -16 21 0 7 4 6 10 -3 5 -8 10 -10 10
-4 0 16 -25 35 -35 26 -5 -4 -5 -1 -1 6 5 7 15 11 23 8 8 -3 11 -1 8 4 -3 6
-13 10 -21 10 -8 0 -14 5 -14 11 0 5 6 7 13 3 8 -5 7 -2 -2 9 -11 14 -17 15
-30 5 -14 -12 -14 -11 -2 4 7 10 17 15 22 12 5 -3 9 -1 9 4 0 5 -10 12 -22 15
-18 5 -19 8 -8 21 7 9 8 16 3 16 -5 0 -10 10 -11 23 -3 30 -7 48 -16 75 -7 20
-10 21 -24 10 -11 -8 -10 -4 3 11 17 21 17 23 3 18 -13 -4 -15 -2 -11 10 5 12
3 14 -8 8 -12 -8 -12 -6 0 8 11 14 11 17 0 17 -11 0 -11 2 1 10 13 9 13 10 0
11 -8 1 -19 1 -23 0 -5 -1 -6 3 -2 9 3 6 12 8 18 4 7 -3 5 0 -4 8 -16 13 -30
42 -34 68 -5 30 -10 45 -20 52 -6 5 -5 8 3 8 6 0 12 5 12 11 0 5 -5 7 -10 4
-6 -4 -10 -3 -9 2 4 22 -2 34 -13 27 -9 -5 -9 -2 1 9 10 13 10 17 1 17 -7 0
-10 8 -7 20 3 11 0 26 -7 33 -13 13 -16 20 -16 38 0 5 -6 7 -12 3 -7 -4 -5 2
5 13 20 23 11 39 -11 20 -13 -10 -14 -9 -2 12 11 22 10 23 -5 17 -15 -5 -16
-4 -5 9 10 12 10 15 -1 15 -11 0 -11 2 1 10 8 5 11 10 5 10 -5 0 -11 16 -12
35 -1 20 2 33 8 30 5 -4 9 1 9 10 0 10 -5 13 -12 9 -7 -4 -8 -3 -4 5 6 9 11 9
24 -1 13 -11 14 -11 10 2 -4 13 17 45 31 45 3 0 15 6 26 12 18 11 18 12 3 13
-10 0 -18 -4 -18 -8 0 -4 -12 -8 -27 -9 -27 -2 -27 -2 5 12 18 8 31 19 27 25
-4 6 1 7 11 3 13 -5 15 -3 9 7 -6 10 -4 12 8 7 11 -4 15 -1 12 14 -3 17 5 23
27 20 4 0 4 12 2 27 -5 25 -4 25 8 9 13 -17 15 -17 33 5 14 16 15 19 3 10 -15
-12 -17 -11 -15 6 1 14 6 18 22 14 18 -5 18 -4 6 11 -12 16 -12 17 5 10 17 -6
17 -5 5 10 -12 15 -12 17 3 11 11 -4 16 -2 14 6 -2 7 4 15 12 17 9 3 11 1 5
-4 -12 -9 -13 -29 -2 -37 4 -3 5 -3 2 1 -3 3 2 17 11 31 9 13 11 21 5 18 -6
-4 -11 -2 -11 5 0 6 8 9 20 6 11 -3 18 -1 14 4 -3 5 -1 9 3 9 16 0 34 38 21
46 -7 5 -8 3 -3 -6 5 -9 4 -11 -4 -6 -20 12 -2 27 20 16 17 -10 23 -6 20 12 0
4 11 16 24 26 14 11 25 23 25 27 0 4 -6 2 -14 -4 -10 -8 -16 -9 -21 -1 -3 5
-5 10 -3 11 2 0 11 2 21 4 27 5 47 25 41 40 -3 8 4 16 16 20 12 4 19 12 16 20
-3 10 2 12 17 10 22 -4 22 -4 2 11 -14 11 -15 15 -5 14 36 -5 43 -1 29 17 -13
15 -12 15 11 3 24 -13 24 -12 10 5 -14 17 -13 18 4 12 16 -6 17 -5 6 8 -11 13
-10 15 2 10 19 -8 64 40 47 50 -7 5 -10 4 -6 -2 4 -6 -2 -18 -13 -28 -11 -10
-20 -13 -20 -8 0 6 7 13 15 17 8 3 15 9 14 13 -3 20 3 23 22 12 13 -7 19 -7
15 -1 -3 6 3 14 15 17 11 4 18 9 16 12 -3 2 -14 0 -26 -6 -14 -8 -22 -8 -27 1
-4 7 -3 8 4 4 6 -4 17 2 24 14 7 11 16 20 21 20 4 0 5 -6 1 -12 -6 -10 -5 -10
8 -1 8 7 19 9 23 5 5 -4 5 -1 1 6 -4 7 -11 10 -16 7 -5 -3 -11 -1 -14 4 -4 5
4 8 17 7 14 -2 24 2 24 10 0 7 -4 11 -8 9 -10 -7 -5 22 6 32 4 4 5 2 1 -4 -5
-9 0 -12 18 -11 13 1 23 5 20 9 -2 4 2 9 10 12 15 6 16 23 3 43 -10 16 4 26
20 13 10 -9 13 -8 13 4 0 8 7 17 15 21 8 3 15 12 15 21 0 8 7 15 15 15 8 0 15
7 15 15 0 8 5 15 11 15 7 0 9 9 6 21 -5 17 -3 18 9 8 8 -7 14 -8 13 -3 -4 21
2 26 19 13 15 -13 16 -12 3 3 -7 10 -17 15 -22 12 -5 -3 -6 2 -3 10 3 9 11 13
17 9 6 -4 8 0 4 10 -4 10 -1 17 6 17 8 0 6 4 -3 10 -9 6 -11 10 -3 10 7 0 10
6 7 14 -3 8 -1 17 5 21 6 3 11 11 11 16 0 6 -5 7 -12 3 -7 -5 -8 -3 -4 5 5 7
15 10 24 6 12 -4 12 -1 -4 16 -10 12 -13 19 -6 15 6 -4 12 -2 12 4 0 6 4 9 9
6 5 -4 6 9 1 29 -5 24 -4 34 4 32 6 -1 10 4 8 11 -1 6 4 12 10 12 8 0 5 7 -6
15 -16 12 -17 15 -4 15 11 0 15 8 13 30 -1 16 1 27 6 24 5 -3 7 -9 4 -14 -3
-5 -1 -11 4 -14 5 -4 8 2 6 11 -1 10 2 23 7 30 6 7 5 14 -3 18 -8 6 -7 10 2
16 12 8 11 11 -1 20 -12 9 -10 10 8 6 19 -5 21 -3 11 9 -9 11 -9 17 1 29 6 8
9 18 6 24 -3 5 -3 16 0 25 5 14 9 14 23 4 10 -8 8 -3 -4 11 -16 20 -17 23 -3
18 11 -4 15 -1 14 11 -2 9 -8 18 -14 20 -6 2 -3 11 8 22 11 11 17 26 14 35 -4
10 0 15 12 15 15 0 16 2 5 9 -11 7 -11 9 0 14 12 4 11 7 -1 16 -13 9 -12 11 3
11 15 0 16 3 6 21 -9 17 -8 20 2 14 9 -6 10 -3 5 10 -5 14 -4 16 7 7 11 -9 13
-6 9 16 -2 17 2 33 12 41 16 14 11 45 -7 34 -6 -3 -7 -1 -3 6 4 6 11 9 16 6 5
-3 11 -1 15 5 3 5 0 10 -7 10 -9 0 -9 3 -2 8 6 4 10 19 10 34 -1 19 2 24 10
18 7 -7 11 -5 11 5 0 8 -4 15 -9 15 -4 0 -8 5 -8 11 0 6 6 9 14 6 9 -4 13 3
14 21 0 62 2 68 12 52 7 -10 10 -11 10 -2 0 7 -7 15 -16 19 -14 5 -12 8 7 19
13 7 18 13 11 14 -7 0 -10 5 -7 10 4 6 12 7 18 4 9 -5 9 -3 0 6 -10 11 -9 16
5 27 9 8 11 11 3 7 -9 -4 -12 -2 -9 7 3 8 12 13 19 11 8 -1 5 4 -5 13 -17 13
-18 15 -3 15 20 0 21 4 6 32 -9 16 -8 19 2 13 9 -6 11 -3 6 8 -4 11 -2 14 8
11 10 -4 12 0 8 17 -5 17 -3 20 8 14 11 -7 11 -5 -1 10 -9 11 -10 16 -2 11 16
-9 16 6 0 23 -11 10 -10 11 3 6 10 -4 20 -1 25 6 4 7 3 10 -3 6 -6 -4 -13 2
-16 14 -4 16 -3 18 8 9 10 -9 13 -4 11 24 -1 19 2 32 6 30 5 -3 8 4 8 16 0 13
4 19 12 14 7 -5 8 -3 3 6 -4 7 -2 16 6 21 12 7 12 9 0 9 -11 0 -11 3 -1 15 11
13 10 14 -6 9 -18 -6 -18 -6 0 8 12 10 17 21 13 32 -4 9 -3 15 2 12 5 -3 14 1
21 9 11 13 10 15 -6 9 -18 -5 -18 -5 0 10 14 11 15 16 6 16 -9 0 -8 5 6 16 10
8 14 13 8 10 -8 -4 -11 3 -10 18 0 13 6 22 12 19 6 -2 14 3 18 12 3 9 2 13 -4
10 -5 -3 -8 3 -7 14 0 11 4 18 8 15 7 -4 20 19 25 46 2 8 -2 18 -9 22 -9 6 -8
8 2 8 7 0 11 6 7 15 -3 10 1 15 12 15 10 0 13 3 7 8 -17 12 -17 35 0 28 13 -4
14 -2 5 14 -9 17 -8 19 7 13 16 -6 16 -5 4 10 -11 14 -11 17 0 17 9 0 10 3 4
8 -20 14 -15 30 8 25 21 -5 21 -5 3 9 -15 12 -16 17 -6 23 9 6 11 4 5 -5 -5
-9 -4 -11 4 -6 6 4 9 12 6 17 -4 5 -498 9 -1224 9 -1077 0 -1219 -2 -1225 -15z
m59 -135 c-3 -5 -1 -10 6 -10 7 0 10 -3 6 -6 -9 -9 -28 6 -22 17 4 5 8 9 11 9
3 0 2 -4 -1 -10z m32 -55 c0 -8 -4 -12 -9 -9 -5 3 -6 10 -3 15 9 13 12 11 12
-6z m2293 -39 c0 -3 -4 -8 -10 -11 -5 -3 -10 -1 -10 4 0 6 5 11 10 11 6 0 10
-2 10 -4z m-2090 -470 c0 -3 -4 -8 -10 -11 -5 -3 -10 -1 -10 4 0 6 5 11 10 11
6 0 10 -2 10 -4z m386 -605 c-3 -5 1 -12 10 -15 8 -3 12 -11 8 -17 -4 -8 -3
-9 5 -5 6 4 9 11 6 16 -3 5 -1 12 5 15 6 4 9 1 8 -6 -2 -7 7 -14 19 -15 12 -1
20 3 17 8 -7 12 29 6 37 -6 4 -4 15 -3 25 4 15 9 16 10 2 6 -12 -3 -15 -1 -11
10 4 11 8 12 20 2 11 -9 16 -9 22 1 6 10 10 9 14 -4 4 -9 3 -14 -1 -11 -4 2
-16 -2 -27 -10 -10 -8 -14 -14 -8 -14 7 0 14 4 17 9 7 10 25 9 42 -2 7 -4 18
1 25 11 12 15 12 16 -2 4 -14 -10 -18 -10 -22 2 -4 11 -1 13 10 9 12 -5 14 -3
8 8 -5 8 2 5 14 -6 22 -19 86 -31 75 -14 -3 5 0 9 5 9 6 0 11 -5 11 -10 0 -6
11 -5 28 3 15 8 33 12 40 10 6 -3 12 0 12 6 0 6 4 11 8 11 5 0 9 -7 9 -15 0
-8 -4 -12 -9 -9 -4 3 -8 0 -8 -5 0 -13 3 -13 24 -5 9 3 14 9 11 14 -2 4 7 5
20 2 14 -2 22 -9 19 -16 -3 -6 4 0 16 14 19 21 21 22 18 5 -2 -14 3 -20 19
-21 12 -1 20 3 17 7 -3 5 0 9 5 9 6 0 11 -4 11 -9 0 -9 42 -9 80 0 9 3 14 -2
12 -10 -2 -11 0 -12 11 -3 8 7 18 8 22 4 5 -4 5 -1 1 6 -4 6 -2 12 3 12 6 0
11 -6 11 -12 0 -10 2 -10 8 0 5 7 18 14 30 17 19 3 21 1 12 -15 -8 -15 -7 -17
10 -13 12 3 20 0 20 -6 0 -7 -5 -9 -12 -5 -10 6 -10 5 -1 -7 16 -20 -8 -54
-27 -36 -10 10 -10 8 -1 -10 8 -16 8 -23 1 -23 -6 0 -8 -5 -4 -12 5 -8 2 -9
-9 -5 -10 4 -17 2 -17 -5 0 -7 -6 -6 -17 3 -15 11 -16 11 -5 -1 17 -20 15 -30
-5 -24 -17 5 -17 5 -1 -6 10 -6 15 -17 11 -26 -4 -11 -9 -12 -18 -4 -10 8 -15
8 -21 -1 -4 -7 -3 -9 3 -6 6 4 13 1 16 -7 4 -10 0 -12 -14 -9 -10 3 -19 10
-19 16 0 6 -3 7 -6 4 -4 -4 -2 -13 5 -21 9 -11 8 -17 -3 -29 -8 -8 -13 -17
-10 -20 3 -3 1 -8 -4 -11 -11 -7 -10 19 1 30 4 4 7 12 7 18 0 6 -8 -1 -17 -14
-9 -14 -22 -28 -27 -32 -7 -5 -7 -8 2 -8 6 0 12 -4 12 -10 0 -5 -7 -6 -17 -3
-11 4 -14 3 -9 -5 4 -7 1 -12 -6 -13 -7 0 -4 -4 7 -9 23 -10 5 -13 -19 -4 -9
3 -13 11 -9 17 3 6 1 7 -6 3 -9 -6 -9 -11 0 -22 9 -11 8 -14 -7 -14 -18 -1
-18 -1 1 -16 19 -16 19 -16 -5 -9 -23 7 -24 7 -10 -10 14 -17 14 -17 -9 -6
-13 7 -21 8 -17 3 3 -6 0 -17 -8 -25 -8 -8 -12 -18 -8 -22 4 -5 -1 -5 -11 -2
-11 4 -16 3 -12 -3 6 -9 -8 -14 -27 -11 -5 0 -8 -4 -8 -10 0 -6 9 -8 23 -4 19
5 20 5 4 -5 -9 -6 -15 -15 -12 -19 2 -5 -2 -14 -9 -20 -11 -10 -17 -8 -25 6
-9 15 -10 14 -8 -11 1 -19 -3 -31 -13 -33 -13 -4 -13 -3 0 6 8 6 10 11 4 11
-15 0 -39 -29 -30 -37 3 -3 6 0 6 7 0 7 2 11 5 8 3 -3 2 -13 -1 -22 -5 -14 -9
-15 -15 -4 -7 11 -10 10 -21 -1 -10 -10 -10 -12 0 -7 6 4 12 2 12 -3 0 -6 -4
-11 -8 -11 -5 0 -17 -7 -28 -16 -18 -15 -18 -15 3 -5 12 6 24 11 27 11 7 0
-27 -37 -34 -37 -30 -2 -32 -3 -21 -17 13 -15 -1 -32 -18 -21 -5 3 -16 -1 -24
-9 -8 -8 -18 -12 -21 -8 -4 3 -4 -2 0 -12 6 -16 8 -17 16 -2 5 9 13 16 18 16
6 0 2 -9 -7 -19 -9 -11 -21 -17 -27 -15 -7 3 -27 -11 -46 -31 -33 -34 -33 -35
-14 -49 18 -14 18 -15 -5 -9 -16 4 -22 3 -17 -5 3 -6 1 -14 -5 -18 -7 -4 -9
-3 -5 4 3 6 3 13 -2 16 -5 3 -9 0 -10 -7 0 -7 -3 -21 -6 -32 -2 -11 -5 -22 -6
-25 0 -3 -8 4 -16 15 -15 19 -15 19 -12 -5 2 -14 8 -32 13 -40 7 -13 6 -13 -7
-2 -14 11 -20 11 -37 0 -12 -7 -19 -19 -16 -25 2 -7 -1 -13 -7 -13 -7 0 -7 -4
1 -14 10 -11 6 -13 -23 -12 -26 2 -33 -1 -31 -13 3 -23 -13 -51 -28 -47 -6 1
-9 1 -4 -1 4 -3 5 -9 1 -14 -3 -5 0 -9 7 -9 7 0 9 -3 6 -6 -4 -4 -14 -1 -22 6
-13 11 -16 11 -13 -1 2 -8 -3 -13 -12 -11 -10 3 -9 -3 5 -19 11 -12 15 -19 9
-16 -7 4 -17 0 -24 -8 -13 -15 -44 -9 -33 8 3 6 1 7 -5 3 -15 -9 7 -47 23 -39
5 4 6 2 2 -3 -5 -5 -13 -10 -18 -10 -5 -1 -12 -2 -15 -3 -4 0 0 -9 7 -18 12
-16 12 -17 -2 -6 -9 7 -20 9 -25 5 -4 -4 -2 2 6 12 13 18 13 19 -1 14 -9 -4
-16 -1 -16 7 0 7 6 11 14 8 19 -7 16 7 -4 23 -15 12 -15 13 -2 8 12 -4 16 1
16 18 1 54 3 61 16 50 9 -8 12 1 10 39 0 27 4 52 10 56 5 3 7 2 4 -4 -3 -5 1
-10 10 -10 13 0 12 3 -4 17 -20 16 -20 17 -2 28 13 9 17 21 15 47 -2 24 1 34
9 31 9 -3 12 8 10 34 -2 32 1 37 14 32 14 -5 14 -4 2 11 -12 15 -11 17 3 17 9
0 16 5 16 11 0 5 -4 8 -9 4 -5 -3 -12 -1 -16 5 -3 5 1 10 9 10 8 0 18 5 22 12
4 7 3 8 -4 4 -14 -8 -15 -4 -6 18 3 9 11 13 18 9 6 -3 3 3 -8 15 -18 21 -18
22 8 31 14 6 26 13 26 15 0 3 -8 2 -17 -1 -15 -6 -16 -4 -6 8 6 8 13 25 15 39
1 14 10 28 18 32 12 5 12 7 -2 7 -10 1 -18 6 -18 12 0 5 6 7 13 3 7 -5 6 0 -3
11 -9 11 -10 16 -2 11 6 -4 12 -3 12 1 0 5 -6 15 -12 22 -10 11 -10 12 -1 7 9
-5 11 -2 7 8 -3 9 -11 13 -18 9 -6 -4 -5 1 2 10 12 14 10 20 -11 41 -15 15
-21 27 -14 29 9 3 9 8 0 18 -9 9 -10 16 -2 26 11 13 1 18 -24 14 -5 -1 -6 3
-2 9 3 6 12 8 18 4 7 -3 3 2 -7 10 -12 9 -14 16 -7 16 8 0 7 6 -5 17 -10 11
-13 18 -6 21 8 2 7 11 -4 27 -16 24 -15 45 1 58 6 5 4 7 -5 4 -8 -2 -14 -10
-12 -16 1 -7 -2 -10 -7 -6 -7 4 -7 15 -1 30 9 24 4 29 -21 27 -3 -1 -6 5 -6
13 0 8 7 11 16 7 14 -5 14 -3 2 11 -7 9 -17 15 -21 12 -17 -10 3 35 23 52 11
10 17 13 14 6 -4 -6 -3 -14 3 -18 5 -3 10 -2 10 4 0 5 9 9 19 8 11 0 18 -4 16
-7 -2 -3 7 -6 20 -6 13 0 21 4 19 8 -3 5 -11 5 -17 1 -7 -4 -6 0 2 10 14 18
26 23 17 8z m275 -14 c-10 -9 -11 -8 -5 6 3 10 9 15 12 12 3 -3 0 -11 -7 -18z
m379 19 c0 -2 -8 -10 -17 -17 -16 -13 -17 -12 -4 4 13 16 21 21 21 13z m28
-21 c-3 -3 -9 2 -12 12 -6 14 -5 15 5 6 7 -7 10 -15 7 -18z m-74 7 c3 -5 -1
-9 -9 -9 -8 0 -12 4 -9 9 3 4 7 8 9 8 2 0 6 -4 9 -8z m146 -146 c0 -2 -7 -7
-16 -10 -8 -3 -12 -2 -9 4 6 10 25 14 25 6z m-526 -607 c-3 -5 -10 -7 -15 -3
-5 3 -7 10 -3 15 3 5 10 7 15 3 5 -3 7 -10 3 -15z m-44 -29 c0 -5 -5 -10 -11
-10 -5 0 -7 5 -4 10 3 6 8 10 11 10 2 0 4 -4 4 -10z m877 -55 c0 -8 -4 -12 -9
-9 -5 3 -6 10 -3 15 9 13 12 11 12 -6z m-17 -20 c0 -12 -19 -12 -23 0 -4 9 -1
12 9 8 7 -3 14 -7 14 -8z m-973 -70 c0 -8 -4 -15 -9 -15 -10 0 -11 14 -1 23 9
10 10 9 10 -8z m-797 -39 c0 -2 -7 -9 -15 -16 -13 -11 -14 -10 -9 4 5 14 24
23 24 12z m727 -31 c0 -8 -4 -12 -9 -9 -5 3 -6 10 -3 15 9 13 12 11 12 -6z
m-790 -178 c0 -8 -6 -14 -14 -14 -9 0 -10 4 -2 14 6 7 12 13 14 13 1 0 2 -6 2
-13z m1537 -3 c3 -8 2 -12 -4 -9 -6 3 -10 10 -10 16 0 14 7 11 14 -7z m-49
-74 c-3 -5 -11 -10 -16 -10 -6 0 -7 5 -4 10 3 6 11 10 16 10 6 0 7 -4 4 -10z
m-24 -27 c13 -16 12 -17 -3 -4 -10 7 -18 15 -18 17 0 8 8 3 21 -13z m-31 -37
c0 -3 -4 -8 -10 -11 -5 -3 -10 -1 -10 4 0 6 5 11 10 11 6 0 10 -2 10 -4z
m-954 -442 c-11 -8 -25 -14 -30 -13 -6 0 -5 3 2 6 6 2 10 8 8 12 -3 4 5 8 17
8 21 2 22 1 3 -13z m132 -359 c-3 -3 -9 2 -12 12 -6 14 -5 15 5 6 7 -7 10 -15
7 -18z m167 -503 c-3 -3 -11 0 -18 7 -9 10 -8 11 6 5 10 -3 15 -9 12 -12z
m752 -318 c-3 -3 -12 -4 -19 -1 -8 3 -5 6 6 6 11 1 17 -2 13 -5z m-572 -252
c-3 -3 -11 0 -18 7 -9 10 -8 11 6 5 10 -3 15 -9 12 -12z m-912 -13 c-8 -8 -13
-7 -18 2 -5 8 -4 10 3 5 7 -4 12 -2 12 5 0 7 3 9 7 6 4 -4 2 -12 -4 -18z m947
-89 c0 -5 -2 -10 -4 -10 -3 0 -8 5 -11 10 -3 6 -1 10 4 10 6 0 11 -4 11 -10z
m657 -6 c-3 -3 -12 -4 -19 -1 -8 3 -5 6 6 6 11 1 17 -2 13 -5z m-1762 -414 c3
-5 1 -10 -4 -10 -6 0 -11 5 -11 10 0 6 2 10 4 10 3 0 8 -4 11 -10z"/>
<path d="M1635 3779 c-4 -6 -4 -13 -1 -16 3 -4 6 -1 6 6 0 7 5 9 12 5 7 -4 8
-3 4 4 -9 15 -13 15 -21 1z"/>
<path d="M1995 3779 c-4 -6 -5 -12 -2 -15 2 -3 7 2 10 11 7 17 1 20 -8 4z"/>
<path d="M1145 3769 c-4 -6 -5 -12 -2 -15 2 -3 7 2 10 11 7 17 1 20 -8 4z"/>
<path d="M1710 3770 c-9 -6 -10 -10 -3 -10 6 0 15 5 18 10 8 12 4 12 -15 0z"/>
<path d="M1237 3419 c7 -7 15 -10 18 -7 3 3 -2 9 -12 12 -14 6 -15 5 -6 -5z"/>
<path d="M1683 3305 c0 -8 4 -12 9 -9 5 3 6 10 3 15 -9 13 -12 11 -12 -6z"/>
<path d="M1527 3129 c7 -7 15 -10 18 -7 3 3 -2 9 -12 12 -14 6 -15 5 -6 -5z"/>
<path d="M1143 2683 c0 -9 4 -10 14 -2 7 6 13 12 13 14 0 1 -6 2 -13 2 -8 0
-14 -6 -14 -14z"/>
<path d="M3254 5112 c3 -3 1 -11 -5 -18 -7 -8 -6 -14 2 -20 8 -4 9 -3 5 4 -4
7 -2 12 4 12 7 0 10 -6 7 -12 -2 -7 -11 -12 -20 -12 -9 1 -13 -4 -11 -11 3 -7
0 -16 -6 -20 -8 -5 -8 -11 1 -21 9 -11 8 -14 -2 -14 -10 0 -10 -3 -2 -11 12
-12 6 -42 -7 -34 -4 3 -11 -2 -14 -11 -3 -8 -2 -12 4 -9 17 10 11 -7 -7 -22
-10 -8 -12 -12 -5 -8 17 9 15 -3 -3 -22 -13 -12 -13 -18 -3 -31 8 -9 8 -13 2
-9 -15 9 -26 -17 -17 -40 5 -12 3 -14 -8 -8 -12 7 -12 6 -1 -7 10 -13 10 -17
-5 -22 -14 -6 -15 -9 -4 -15 14 -9 3 -41 -14 -44 -5 -1 -10 -10 -10 -19 -1
-10 3 -14 9 -11 6 4 5 -1 -3 -10 -9 -12 -10 -17 -2 -17 8 0 8 -4 -1 -14 -7 -8
-16 -12 -20 -9 -4 2 -5 -3 -2 -11 3 -9 11 -13 17 -9 6 3 7 1 3 -6 -4 -6 -12
-9 -17 -6 -9 6 -13 -8 -9 -34 3 -28 -10 -62 -23 -54 -7 4 -5 -2 3 -12 8 -10
10 -16 4 -12 -7 4 -15 0 -18 -9 -3 -8 -2 -12 4 -9 6 3 10 1 10 -4 0 -6 -4 -11
-10 -11 -5 0 -10 -5 -10 -11 0 -5 6 -7 13 -3 9 6 9 5 0 -8 -7 -8 -9 -19 -5
-24 4 -4 0 -3 -8 3 -13 10 -16 8 -16 -7 0 -10 4 -16 8 -14 4 3 5 -2 2 -10 -3
-9 -11 -13 -18 -9 -7 4 -7 1 1 -7 10 -11 9 -16 -5 -27 -9 -8 -11 -12 -4 -8 6
3 12 1 12 -4 0 -6 -5 -11 -11 -11 -5 0 -7 -4 -4 -10 3 -5 2 -10 -4 -10 -6 0
-8 -6 -5 -14 3 -8 1 -17 -5 -21 -6 -3 -11 -12 -11 -18 0 -7 4 -6 10 3 7 12 9
10 7 -7 0 -12 -5 -19 -9 -17 -4 3 -8 -4 -8 -16 0 -14 -4 -19 -12 -14 -8 5 -7
0 2 -11 9 -11 10 -16 3 -11 -7 4 -13 3 -13 -1 0 -5 6 -15 13 -22 10 -11 9 -12
-2 -6 -11 6 -13 3 -9 -13 4 -12 2 -20 -3 -16 -5 3 -9 0 -9 -6 0 -6 -4 -8 -10
-5 -7 4 -7 -3 0 -19 6 -18 6 -26 -1 -26 -6 0 -7 -4 -4 -10 3 -5 0 -10 -7 -10
-8 0 -9 -3 -3 -8 6 -4 11 -16 12 -27 l2 -20 -15 20 c-15 19 -15 19 -10 -7 2
-15 0 -30 -5 -33 -14 -9 -11 -27 4 -19 10 6 10 4 0 -7 -7 -7 -13 -21 -13 -32
0 -10 -4 -16 -9 -13 -11 7 -9 -13 2 -31 6 -9 3 -11 -10 -6 -16 6 -17 5 -3 -12
8 -10 10 -16 4 -12 -7 4 -15 0 -18 -9 -4 -10 -2 -13 7 -8 9 6 9 4 -1 -8 -10
-13 -10 -17 0 -21 7 -3 3 -6 -9 -6 -16 -1 -21 -6 -17 -16 4 -8 11 -12 18 -9 6
3 2 -1 -8 -10 -15 -12 -16 -19 -8 -29 15 -18 3 -30 -15 -15 -11 9 -13 8 -11
-3 2 -8 10 -20 18 -26 13 -11 12 -12 -4 -6 -13 4 -17 3 -12 -5 4 -7 2 -12 -6
-12 -9 0 -9 -3 2 -10 11 -7 11 -10 2 -10 -7 0 -10 -5 -7 -11 4 -6 -1 -16 -11
-23 -10 -7 -18 -23 -19 -34 -1 -18 1 -19 13 -10 9 8 10 14 3 16 -12 4 -5 22 9
22 16 0 -4 -55 -32 -86 -15 -16 -16 -24 -7 -29 8 -6 10 -4 4 5 -5 8 -4 11 3 6
6 -4 9 -13 6 -21 -4 -8 -10 -13 -14 -10 -5 3 -9 -3 -9 -12 0 -10 -2 -34 -6
-53 -4 -19 -7 -41 -7 -47 -1 -9 -5 -9 -13 -3 -8 7 -11 3 -9 -13 1 -12 3 -22 4
-22 1 0 3 -8 5 -17 2 -10 -2 -15 -10 -12 -7 3 -16 0 -21 -7 -4 -8 -3 -10 4 -5
16 10 15 -7 0 -23 -10 -11 -10 -12 -1 -7 9 5 11 2 7 -8 -3 -9 -10 -14 -14 -11
-4 3 -4 -11 0 -31 7 -31 6 -33 -8 -22 -13 11 -15 10 -10 -10 4 -14 2 -20 -5
-15 -7 4 -8 0 -3 -12 4 -11 0 -26 -11 -39 -12 -13 -13 -17 -3 -9 13 10 16 9
16 -6 0 -10 -7 -18 -14 -17 -8 1 -16 -7 -17 -17 -2 -9 0 -15 4 -13 4 3 7 -4 7
-14 0 -15 -3 -17 -15 -7 -12 10 -13 9 -2 -12 11 -19 11 -22 0 -16 -9 6 -10 3
-6 -9 6 -14 3 -17 -9 -12 -14 5 -15 4 -4 -9 7 -8 17 -12 23 -8 6 3 7 1 3 -6
-4 -6 -12 -9 -17 -6 -10 7 -10 5 -13 -38 0 -15 -8 -32 -16 -37 -14 -9 -6 -15
15 -10 6 1 0 -9 -13 -23 -16 -17 -20 -27 -12 -32 7 -4 8 -11 1 -18 -5 -7 -10
-16 -11 -22 -1 -5 -3 -12 -5 -13 -7 -7 1 23 9 38 7 12 6 13 -4 3 -18 -17 -23
-53 -7 -54 6 0 3 -4 -8 -9 -11 -5 -14 -9 -6 -9 10 -1 10 -7 -4 -27 -9 -15 -12
-24 -7 -20 6 3 14 1 18 -5 4 -8 3 -9 -4 -5 -7 4 -12 2 -12 -4 0 -6 -4 -8 -10
-5 -6 3 -7 -1 -4 -9 4 -10 1 -16 -7 -16 -11 0 -11 -3 1 -11 12 -8 12 -12 2
-16 -10 -4 -10 -8 -1 -19 10 -12 9 -13 -6 -8 -15 6 -16 5 -5 -17 12 -21 12
-23 -2 -11 -13 10 -18 10 -24 1 -4 -7 -3 -9 3 -6 6 4 11 -4 11 -18 0 -15 -5
-22 -12 -18 -6 3 -8 3 -4 -2 4 -4 2 -15 -5 -23 -8 -10 -8 -13 -1 -9 7 4 15 0
18 -9 4 -10 2 -13 -6 -8 -7 5 -9 2 -5 -9 4 -12 2 -14 -10 -10 -13 5 -15 2 -10
-12 4 -9 2 -24 -4 -31 -9 -11 -9 -14 0 -14 7 0 9 -5 6 -10 -4 -6 -11 -7 -17
-4 -6 4 -6 -1 1 -14 16 -29 14 -39 -3 -17 -13 18 -14 17 -10 -13 2 -20 0 -31
-6 -27 -6 3 -10 1 -10 -4 0 -6 4 -11 10 -11 5 0 7 -7 4 -15 -4 -8 -11 -12 -18
-8 -6 4 -6 0 2 -9 10 -13 10 -18 1 -24 -8 -5 -9 -3 -4 6 5 9 4 11 -3 6 -9 -5
-9 -13 -2 -27 6 -10 7 -19 3 -18 -19 3 -27 -2 -14 -10 12 -7 10 -14 -8 -37
-21 -27 -22 -29 -4 -43 17 -13 17 -13 0 -7 -16 5 -18 1 -15 -30 1 -22 -3 -38
-11 -43 -8 -5 -11 -16 -8 -25 4 -9 2 -16 -3 -16 -6 0 -10 5 -10 12 0 6 -2 9
-5 6 -10 -10 7 -38 19 -31 7 4 7 1 -1 -9 -7 -8 -12 -17 -10 -19 1 -2 -3 2 -9
9 -10 10 -12 8 -10 -12 0 -13 4 -22 9 -19 15 9 7 -10 -10 -24 -10 -8 -12 -11
-5 -8 11 6 12 3 3 -13 -6 -10 -8 -29 -6 -41 2 -12 0 -19 -6 -16 -5 4 -7 10 -4
15 3 5 1 11 -4 14 -12 8 -8 -37 4 -46 6 -5 5 -8 -2 -8 -7 0 -13 -12 -13 -26 0
-19 -4 -25 -14 -21 -10 4 -13 1 -9 -8 3 -8 9 -12 14 -9 5 3 4 -6 -2 -20 -7
-14 -17 -22 -23 -19 -6 4 -4 -2 4 -12 14 -17 13 -18 -3 -12 -13 5 -16 3 -10
-5 10 -18 11 -48 1 -48 -5 0 -6 -4 -3 -10 3 -5 0 -10 -7 -10 -9 0 -9 -3 2 -10
13 -8 12 -10 -2 -10 -10 0 -18 -5 -18 -11 0 -5 4 -7 10 -4 7 4 7 -2 1 -18 -6
-14 -7 -28 -4 -31 3 -3 -2 -8 -11 -12 -9 -3 -13 -10 -10 -15 3 -6 0 -17 -8
-26 -10 -13 -10 -15 0 -9 7 4 3 -9 -8 -30 -18 -32 -19 -36 -4 -30 14 5 15 4 4
-9 -7 -8 -17 -12 -24 -8 -6 4 -5 -1 3 -10 7 -9 9 -17 3 -17 -6 0 -8 -10 -4
-22 5 -20 3 -21 -10 -10 -13 11 -15 8 -12 -20 2 -18 6 -38 8 -45 3 -8 -1 -10
-12 -6 -15 6 -16 5 -2 -12 8 -10 10 -16 4 -12 -7 4 -15 -1 -19 -11 -13 -28
-14 -42 -4 -42 6 0 7 -5 4 -10 -4 -6 -12 -7 -18 -3 -7 4 -6 0 2 -10 10 -13 10
-17 1 -17 -10 0 -10 -3 -1 -14 9 -10 9 -16 1 -21 -6 -4 -9 -14 -5 -24 5 -12 4
-13 -6 -4 -10 10 -9 15 1 28 8 10 9 15 1 15 -12 0 -14 -6 -15 -72 -1 -27 2
-48 7 -48 4 0 7 -5 7 -11 0 -5 -6 -7 -12 -4 -7 4 -5 0 4 -8 14 -11 15 -16 5
-27 -10 -10 -8 -12 7 -6 17 6 17 5 5 -11 -9 -11 -10 -14 -1 -9 7 4 12 2 12 -4
0 -6 4 -9 9 -6 4 3 8 -14 7 -38 -1 -25 2 -42 6 -40 8 5 12 -18 9 -43 -1 -7 3
-13 9 -13 6 0 8 4 5 10 -3 5 -1 10 5 10 6 0 8 -10 4 -26 -5 -18 -1 -29 12 -40
11 -9 12 -13 4 -9 -8 4 -6 -1 4 -9 15 -12 16 -16 5 -16 -12 0 -12 -2 1 -10 13
-9 13 -10 0 -10 -9 0 -11 -3 -5 -8 16 -11 41 -47 28 -39 -20 13 -2 -33 21 -50
15 -11 16 -14 4 -10 -15 5 -16 4 -6 -13 7 -10 16 -16 21 -13 5 3 4 -4 -2 -16
-7 -11 -8 -21 -3 -21 5 0 8 -11 7 -25 -2 -14 1 -23 6 -19 5 3 7 9 4 14 -3 5
-2 11 3 14 5 3 8 -14 8 -38 -1 -29 3 -42 10 -39 10 4 17 -18 26 -84 1 -7 6
-13 12 -14 6 0 2 -4 -9 -9 -20 -8 -20 -9 1 -9 28 -1 36 -11 23 -28 -9 -10 -7
-13 7 -13 18 -1 18 -1 1 -11 -9 -6 -15 -15 -11 -20 4 -6 11 -6 20 2 12 10 13
9 8 -5 -3 -9 0 -24 7 -33 8 -9 9 -14 3 -10 -6 3 -11 0 -11 -8 0 -8 4 -12 9 -9
7 5 12 -18 9 -38 0 -5 4 -8 10 -8 5 0 9 -10 7 -22 -2 -11 3 -23 10 -25 6 -3
12 0 12 7 0 6 6 8 13 4 6 -4 9 -4 5 0 -4 5 -3 18 2 30 5 13 4 30 -3 42 -9 17
-9 18 6 5 15 -12 17 -12 11 4 -5 12 -4 16 4 11 7 -4 8 2 2 24 -6 19 -5 32 2
36 7 5 8 2 3 -6 -5 -9 -4 -11 4 -6 9 6 9 11 -1 24 -11 13 -11 15 4 10 14 -6
15 -2 8 24 -8 26 -7 28 6 17 13 -10 13 -8 4 15 -8 21 -7 28 5 32 8 4 12 10 9
15 -3 5 1 9 8 9 9 0 9 3 -2 10 -13 9 -13 10 0 10 13 0 13 1 0 10 -12 7 -10 11
10 19 14 5 18 10 11 10 -11 1 -12 4 -4 12 6 6 9 18 5 27 -4 12 -1 14 14 9 19
-7 19 -7 0 8 -11 8 -15 15 -10 15 5 0 9 12 8 28 0 15 5 37 13 48 8 12 13 26
11 30 -1 5 3 19 10 30 6 12 8 24 5 28 -3 3 -2 6 3 6 8 0 14 28 17 87 0 6 5 9
11 7 7 -3 11 9 10 31 -1 19 3 38 9 42 6 4 7 1 2 -8 -5 -8 -4 -10 0 -6 11 9 16
39 6 33 -4 -3 -7 4 -7 14 0 10 5 16 10 13 5 -4 7 1 2 12 -6 16 -4 16 11 4 17
-13 17 -13 1 13 -17 26 -17 27 9 46 19 14 23 21 13 27 -9 6 -11 4 -5 -5 6 -9
4 -11 -4 -5 -9 5 -7 12 8 26 25 23 27 33 6 25 -13 -5 -13 -2 1 19 9 13 12 30
8 36 -4 7 -3 9 4 5 6 -3 13 -2 17 4 3 5 1 10 -4 10 -6 0 -11 5 -11 11 0 6 7 8
16 5 8 -3 12 -2 9 4 -12 20 -14 50 -3 56 7 4 8 2 4 -4 -4 -7 -3 -12 2 -12 5 0
12 9 15 20 3 11 1 18 -4 14 -14 -8 -11 14 5 28 11 11 11 15 -3 25 -14 11 -13
12 5 8 19 -3 21 0 17 32 -3 23 -1 33 5 29 6 -3 13 -2 16 3 4 5 1 13 -5 17 -8
5 -9 3 -4 -6 5 -9 4 -11 -4 -6 -9 6 -9 11 0 22 6 8 9 17 5 21 -3 3 1 17 9 30
9 13 13 28 10 33 -3 6 1 10 9 10 9 0 16 5 16 11 0 6 -8 8 -17 5 -17 -6 -17 -5
0 8 14 10 15 15 5 19 -7 3 -2 6 12 6 19 1 22 3 10 10 -8 6 -19 7 -25 5 -5 -3
0 3 12 14 15 13 18 23 12 29 -7 7 -4 16 8 28 21 22 23 35 9 54 -8 11 -8 13 0
8 7 -4 15 0 18 9 9 23 8 26 -6 19 -7 -4 -2 3 12 14 21 18 22 20 5 15 -18 -5
-18 -4 -4 8 9 7 14 19 11 26 -2 7 2 19 8 27 9 11 9 15 1 15 -7 0 0 11 14 24
23 21 24 24 8 30 -14 6 -15 9 -4 15 7 5 10 14 7 20 -4 6 0 14 8 17 9 3 13 10
10 15 -3 5 -11 6 -17 2 -8 -5 -8 -2 0 9 7 8 9 19 5 23 -4 5 -1 5 6 1 7 -4 9
-12 6 -18 -4 -6 -2 -8 3 -5 6 4 8 19 5 33 -4 21 -2 25 9 19 12 -8 12 -6 0 8
-7 9 -10 18 -5 18 5 1 14 2 19 4 6 1 16 3 23 3 8 1 10 7 6 15 -6 9 -5 9 7 0
12 -10 18 -10 28 0 11 10 11 8 2 -10 -6 -13 -16 -23 -22 -23 -6 0 -7 5 -3 12
5 7 3 8 -5 3 -9 -5 -10 -10 -2 -18 8 -8 18 -4 36 13 25 24 35 16 13 -10 -7 -8
-4 -7 8 3 19 16 21 16 38 -1 11 -9 17 -12 14 -7 -3 6 3 18 13 27 12 12 19 13
22 5 3 -9 7 -9 17 0 7 6 19 9 26 6 8 -3 20 0 28 6 10 9 16 8 26 -4 10 -12 15
-13 28 -3 13 11 14 10 4 -9 -18 -33 -14 -38 9 -12 18 21 20 22 14 4 -5 -16 -4
-18 6 -8 10 10 18 8 38 -10 14 -12 20 -15 13 -6 -10 14 -10 18 2 22 8 3 17 1
20 -6 3 -7 3 -1 0 13 -4 19 -3 21 5 10 8 -11 13 -12 22 -3 6 6 18 9 25 6 8 -3
20 0 28 6 10 9 16 8 26 -4 10 -12 15 -13 28 -3 13 11 14 10 4 -9 -18 -33 -14
-38 9 -12 18 21 20 22 14 4 -5 -16 -4 -18 6 -8 10 10 18 8 38 -10 14 -12 20
-15 13 -6 -10 14 -10 18 3 23 8 3 15 0 15 -7 0 -8 4 -6 10 3 5 8 10 11 10 6 0
-5 6 -3 14 3 12 10 19 8 33 -6 17 -17 21 -18 33 -4 12 13 12 14 -3 8 -9 -3
-17 -2 -17 4 0 6 8 9 18 7 9 -1 23 1 31 6 10 6 12 5 7 -2 -4 -7 -2 -12 4 -12
6 0 8 -5 4 -11 -4 -8 -9 -7 -15 2 -6 10 -9 10 -9 2 0 -17 17 -25 25 -12 4 5
14 8 22 5 8 -3 12 -2 9 3 -3 5 1 12 10 15 11 4 15 2 11 -8 -4 -10 -1 -13 8
-10 8 3 13 11 11 17 -1 7 -1 9 1 4 3 -4 9 -5 14 -1 12 7 12 -9 -1 -24 -7 -9
-7 -9 2 -2 7 6 20 10 30 10 10 0 18 4 18 10 0 5 -8 7 -17 3 -19 -7 -18 -5 11
17 11 8 17 10 13 3 -5 -7 0 -16 11 -22 24 -13 34 -4 22 20 -8 14 -6 21 11 29
15 9 18 15 9 25 -8 9 -7 17 4 28 11 11 12 17 3 26 -9 9 -8 11 4 6 20 -8 35 10
18 21 -8 5 -9 3 -4 -6 5 -8 4 -11 -3 -7 -15 10 -9 35 14 53 10 8 12 12 4 8
-12 -7 -13 -5 -3 8 7 8 9 19 5 23 -4 5 1 5 11 2 16 -6 16 -5 0 21 -14 22 -15
25 -2 15 17 -14 19 -7 19 45 0 13 4 21 9 17 5 -3 13 0 17 6 4 7 3 9 -4 5 -6
-3 -13 -2 -17 4 -3 5 -1 10 6 10 7 0 9 9 6 23 -5 20 -5 20 7 5 11 -15 13 -14
13 12 0 17 -5 27 -10 23 -12 -7 -1 14 22 41 9 11 11 16 4 13 -6 -4 -15 -2 -19
4 -4 8 -3 9 4 5 7 -4 12 -2 12 4 0 6 5 8 10 5 11 -7 14 8 3 19 -12 11 -12 37
0 29 7 -4 8 0 4 11 -4 9 -3 15 1 13 4 -3 13 1 20 9 7 8 8 14 2 14 -5 0 -10 5
-10 11 0 5 6 7 13 3 7 -5 6 0 -3 11 -14 17 -13 18 2 12 12 -4 15 -2 11 9 -3 8
1 22 8 31 10 11 10 14 2 9 -9 -5 -11 -2 -7 8 3 9 10 13 15 10 13 -8 11 10 -3
24 -9 9 -8 12 4 12 9 0 20 5 23 10 4 6 3 10 -2 9 -22 -4 -25 2 -8 15 20 15 28
56 11 56 -6 1 0 7 14 15 23 13 20 20 -5 15 -5 -1 -1 8 9 19 11 12 15 27 11 39
-3 11 -1 23 5 27 6 3 8 10 5 15 -3 5 0 12 6 16 7 4 9 3 6 -2 -3 -6 -1 -16 4
-24 7 -11 8 -7 5 12 -3 15 -7 31 -9 35 -3 5 1 17 9 28 9 12 14 14 14 5 0 -7 2
-11 5 -8 3 3 1 18 -5 33 -9 25 -9 27 5 15 14 -12 15 -9 10 18 -3 18 0 34 7 38
7 5 8 3 3 -6 -5 -8 -4 -11 3 -6 14 9 3 38 -12 30 -6 -3 0 4 13 15 13 12 18 21
12 21 -7 0 -9 5 -6 10 4 6 10 8 14 6 4 -3 8 1 8 9 0 8 -3 12 -7 10 -3 -2 -6 5
-6 15 0 15 3 17 15 7 12 -9 13 -9 7 1 -4 6 -3 12 2 12 5 0 9 7 9 15 0 12 -3
12 -16 3 -12 -10 -12 -8 1 8 14 16 15 23 5 34 -10 10 -9 12 6 7 12 -5 16 -3
11 5 -5 8 -2 9 10 5 10 -4 15 -3 11 3 -3 6 -13 10 -22 10 -10 0 -13 6 -9 16 3
8 2 13 -3 9 -5 -3 -11 -2 -14 2 -2 5 -2 3 -1 -4 2 -7 -1 -15 -7 -18 -5 -4 -8
-3 -7 2 2 4 -1 8 -7 8 -5 0 -9 -4 -7 -8 1 -5 -9 0 -24 12 -19 15 -30 18 -39
11 -7 -6 -21 -7 -30 -3 -12 4 -16 3 -11 -5 4 -7 -2 -9 -18 -6 -14 2 -28 0 -31
-6 -4 -6 -16 -3 -32 10 -18 14 -29 17 -38 10 -7 -6 -21 -7 -30 -3 -12 4 -16 3
-11 -5 4 -7 -2 -9 -18 -6 -14 2 -28 0 -31 -6 -4 -6 -16 -3 -32 10 -18 14 -29
17 -38 10 -7 -6 -21 -7 -30 -3 -12 4 -16 3 -12 -4 10 -15 -74 -6 -86 9 -6 9
-7 8 -3 -4 3 -10 0 -20 -6 -24 -6 -4 -8 -3 -5 3 4 6 -1 17 -10 24 -15 12 -16
12 -11 -3 7 -17 -14 -20 -29 -3 -4 4 -2 5 6 0 10 -5 12 -4 7 4 -10 16 -29 2
-21 -17 5 -14 3 -14 -13 1 -22 20 -33 22 -28 5 1 -7 1 -10 -1 -5 -3 4 -10 4
-15 1 -6 -4 -8 -2 -5 3 13 21 -21 21 -44 0 -18 -17 -21 -18 -16 -4 3 9 2 17
-4 17 -5 0 -12 -6 -15 -14 -4 -12 -10 -10 -26 6 -20 20 -22 20 -34 4 -8 -11
-14 -13 -19 -7 -7 12 -26 15 -24 4 3 -19 -2 -25 -14 -15 -14 12 -35 11 -56 -2
-10 -7 -12 -5 -6 3 5 9 0 12 -15 9 -14 -2 -25 3 -27 12 -4 13 -3 13 7 0 10
-12 11 -12 4 5 -4 11 -8 30 -8 42 -1 15 -5 18 -12 12 -8 -6 -14 -4 -18 6 -4
11 -2 14 7 9 9 -6 9 -4 -1 8 -10 13 -10 17 0 21 8 3 6 6 -5 6 -15 1 -16 5 -7
21 10 19 5 25 -21 22 -3 -1 -6 5 -6 13 0 8 5 11 11 8 6 -4 5 1 -3 10 -7 9 -10
24 -7 33 5 12 2 15 -11 10 -15 -5 -15 -4 1 9 16 12 17 15 4 15 -9 0 -19 7 -22
16 -3 8 -2 12 4 9 17 -10 11 7 -7 22 -10 8 -13 12 -6 9 7 -4 11 1 10 14 -1 11
-6 19 -12 16 -7 -2 -12 2 -12 10 0 7 4 11 8 8 4 -2 11 0 14 6 4 6 3 10 -2 9
-4 -1 -15 -1 -23 0 -13 1 -13 2 0 11 10 6 11 10 3 10 -7 0 -13 12 -13 26 0 14
-4 23 -8 20 -4 -2 -8 5 -9 17 0 12 1 16 4 10 3 -7 9 -13 15 -13 6 0 8 6 5 14
-7 18 23 30 37 16 8 -8 5 -9 -9 -5 -16 5 -17 5 -5 -3 8 -6 19 -8 25 -4 5 4 13
7 18 8 4 1 9 3 12 4 3 1 13 3 23 4 9 1 23 5 31 10 10 6 12 5 7 -2 -4 -7 -2
-12 4 -12 6 0 8 -6 4 -12 -5 -10 -4 -10 6 -1 9 8 19 9 31 3 12 -7 20 -6 24 0
4 6 11 7 17 4 6 -4 8 -3 5 3 -3 5 1 10 9 10 8 0 13 -6 10 -13 -3 -8 0 -11 9
-7 8 3 12 10 8 17 -3 6 -3 8 2 4 4 -4 15 -2 23 5 13 9 14 9 8 0 -4 -8 -2 -13
4 -13 6 0 8 -6 4 -12 -5 -10 -4 -10 6 -1 9 8 19 9 31 3 12 -7 20 -6 24 0 4 6
11 7 17 4 6 -4 8 -3 5 3 -3 5 1 10 9 10 8 0 13 -6 10 -13 -3 -8 0 -11 9 -7 8
3 12 10 8 17 -3 6 -3 8 2 4 4 -4 15 -2 23 5 13 9 14 9 8 0 -4 -8 -2 -13 4 -13
6 0 8 -5 4 -12 -6 -10 -5 -10 7 -1 9 7 20 9 29 3 9 -5 19 -5 27 2 7 6 13 7 13
3 0 -4 8 -1 17 6 15 12 16 12 10 -6 -7 -20 -7 -20 8 -1 8 11 15 14 15 8 0 -7
5 -12 11 -12 5 0 8 4 5 9 -4 5 2 8 11 6 10 -1 24 2 31 8 10 8 12 7 10 -3 -2
-8 2 -14 7 -15 6 0 15 -4 22 -8 6 -4 15 -2 19 4 4 8 3 9 -4 5 -7 -4 -12 -2
-12 4 0 6 8 10 18 8 9 -2 16 -10 14 -17 -1 -7 2 -10 8 -6 6 3 8 10 6 13 -2 4
11 7 30 7 19 0 32 -4 30 -10 -2 -6 5 -11 15 -11 14 0 16 3 6 16 -6 8 -7 12 -3
8 5 -4 15 -3 23 4 8 6 13 7 12 2 -1 -5 -1 -16 0 -24 1 -13 3 -13 10 0 6 8 7
18 4 24 -3 5 -1 6 6 2 6 -4 8 -13 4 -19 -4 -7 2 -5 12 3 15 12 17 12 10 1 -6
-11 -4 -13 7 -8 9 3 20 1 26 -5 6 -6 12 -6 17 3 5 8 4 10 -3 5 -7 -4 -12 -2
-12 4 0 6 8 10 18 8 9 -2 16 -10 14 -18 -3 -11 -1 -11 13 0 20 16 67 20 61 5
-2 -6 5 -11 15 -11 14 0 16 3 6 16 -6 8 -7 12 -3 8 5 -4 15 -3 23 4 11 8 12 7
8 -5 -4 -8 -1 -18 6 -23 8 -5 10 -3 4 6 -6 10 -4 12 7 7 9 -3 21 0 28 6 10 9
11 9 5 -2 -6 -10 -4 -13 7 -8 9 3 20 1 26 -5 6 -6 12 -6 17 3 5 8 4 10 -3 5
-7 -4 -12 -2 -12 4 0 6 8 10 18 8 9 -2 16 -10 14 -17 -1 -7 2 -10 8 -6 6 3 8
10 6 13 -2 4 11 7 30 7 19 0 32 -4 30 -10 -2 -6 5 -11 15 -11 14 0 16 3 6 16
-6 8 -7 12 -3 8 5 -4 15 -3 23 4 8 6 13 7 12 2 -1 -5 -1 -16 0 -24 1 -13 3
-13 10 0 6 8 7 18 4 24 -3 5 -1 6 6 2 6 -4 8 -13 4 -19 -4 -7 2 -5 12 3 15 12
17 12 10 1 -6 -11 -4 -13 7 -8 9 3 20 1 26 -5 6 -6 12 -6 17 3 5 8 4 10 -3 5
-7 -4 -12 -2 -12 4 0 6 8 10 18 8 9 -2 16 -10 14 -18 -3 -11 0 -11 14 1 9 8
20 13 23 12 3 -2 6 5 6 15 0 9 4 23 9 31 7 10 5 12 -5 7 -9 -5 -8 -3 2 6 25
21 31 48 11 49 -13 0 -12 3 6 11 12 6 22 15 22 20 0 5 -4 7 -8 4 -5 -3 -9 1
-9 9 0 8 3 13 5 10 12 -11 29 41 19 59 -8 16 -6 18 9 12 10 -4 15 -4 11 0 -4
4 0 19 10 33 15 24 15 25 0 12 -15 -12 -17 -11 -14 10 2 12 9 25 15 27 8 2 9
9 2 23 -9 16 -8 17 7 12 15 -6 16 -4 5 9 -10 13 -10 18 -1 24 8 5 9 3 4 -6 -6
-9 -4 -11 4 -6 7 5 10 14 7 22 -3 7 0 16 6 20 7 4 6 9 -3 15 -10 6 -10 9 -2 9
7 0 10 7 6 17 -5 12 -2 15 10 10 21 -8 18 15 -3 25 -13 6 -12 7 1 7 9 1 20 8
23 17 3 8 2 13 -3 9 -5 -3 -8 3 -6 12 2 10 4 22 4 26 1 5 5 6 10 3 5 -3 8 9 7
28 -1 19 2 32 6 30 3 -2 9 0 12 5 4 5 2 12 -4 16 -6 4 -7 12 -3 18 4 7 8 14 8
17 3 24 18 49 27 44 6 -4 6 2 -1 15 -9 17 -8 24 9 41 18 18 19 24 8 38 -7 9
-8 13 -2 9 7 -4 15 0 18 9 3 8 2 12 -4 9 -6 -4 -7 2 -1 18 6 14 7 29 3 33 -4
5 1 3 10 -4 14 -11 16 -10 13 5 -1 10 3 24 9 32 8 11 8 13 -1 7 -19 -11 -16 5
5 21 9 8 12 12 6 9 -7 -3 -14 1 -17 9 -4 9 -1 12 7 9 17 -6 31 12 16 21 -17
11 -11 28 8 20 14 -5 15 -4 5 6 -15 15 -17 33 -3 24 14 -9 12 8 -2 24 -11 11
-10 12 1 6 11 -6 13 -3 9 13 -4 15 -2 19 8 15 17 -6 18 9 2 25 -11 11 -2 17
23 14 4 -1 4 8 1 20 -3 14 -1 19 6 14 17 -10 15 0 -4 18 -14 15 -14 16 0 16 9
0 16 5 16 11 0 5 -4 8 -9 5 -11 -7 -8 21 4 31 4 4 5 2 1 -4 -4 -7 -5 -13 -2
-13 3 0 10 10 17 21 6 12 7 19 1 15 -5 -3 -12 1 -15 9 -4 8 -1 12 6 9 7 -2 13
4 13 15 0 18 -23 19 -934 19 -513 0 -931 -3 -928 -6z m1827 -39 c13 -16 12
-17 -3 -4 -17 13 -22 21 -14 21 2 0 10 -8 17 -17z m-1635 -1284 c4 -8 9 -7 15
2 6 10 9 10 9 2 0 -17 -17 -25 -25 -12 -4 5 -14 8 -22 5 -8 -3 -11 -1 -8 4 8
13 22 13 31 -1z m160 0 c4 -8 9 -7 15 2 6 10 9 10 9 2 0 -17 -17 -25 -25 -12
-4 5 -14 8 -22 5 -8 -3 -11 -1 -8 4 8 13 22 13 31 -1z m160 0 c4 -8 9 -7 15 2
6 10 9 10 9 2 0 -17 -17 -25 -25 -12 -4 5 -14 8 -22 5 -8 -3 -11 -1 -8 4 8 13
22 13 31 -1z m968 3 c3 -5 -1 -9 -9 -9 -8 0 -12 4 -9 9 3 4 7 8 9 8 2 0 6 -4
9 -8z m-1176 -517 c-3 -3 -9 2 -12 12 -6 14 -5 15 5 6 7 -7 10 -15 7 -18z m99
3 c-3 -8 -6 -5 -6 6 -1 11 2 17 5 13 3 -3 4 -12 1 -19z m297 1 c-3 -5 -10 -7
-15 -3 -5 3 -7 10 -3 15 3 5 10 7 15 3 5 -3 7 -10 3 -15z m160 0 c-3 -5 -10
-7 -15 -3 -5 3 -7 10 -3 15 3 5 10 7 15 3 5 -3 7 -10 3 -15z m160 0 c-3 -5
-10 -7 -15 -3 -5 3 -7 10 -3 15 3 5 10 7 15 3 5 -3 7 -10 3 -15z m-59 -548 c3
-5 2 -12 -3 -15 -5 -3 -9 1 -9 9 0 17 3 19 12 6z m-1185 -771 c0 -5 -5 -10
-11 -10 -5 0 -7 5 -4 10 3 6 8 10 11 10 2 0 4 -4 4 -10z m794 -5 c3 -8 1 -15
-4 -15 -6 0 -10 7 -10 15 0 8 2 15 4 15 2 0 6 -7 10 -15z m-654 -9 c0 -2 -7
-6 -15 -10 -8 -3 -15 -1 -15 4 0 6 7 10 15 10 8 0 15 -2 15 -4z m240 0 c0 -2
-7 -6 -15 -10 -8 -3 -15 -1 -15 4 0 6 7 10 15 10 8 0 15 -2 15 -4z m240 0 c0
-2 -7 -6 -15 -10 -8 -3 -15 -1 -15 4 0 6 7 10 15 10 8 0 15 -2 15 -4z m-1473
-791 c0 -8 -4 -12 -9 -9 -5 3 -6 10 -3 15 9 13 12 11 12 -6z m303 -1099 c0 -2
-7 -9 -15 -16 -13 -11 -14 -10 -9 4 5 14 24 23 24 12z"/>
<path d="M750 4599 c0 -5 5 -7 10 -4 6 3 10 8 10 11 0 2 -4 4 -10 4 -5 0 -10
-5 -10 -11z"/>
<path d="M4937 4477 c-3 -8 1 -14 8 -14 7 0 11 6 8 14 -3 7 -6 13 -8 13 -2 0
-5 -6 -8 -13z"/>
<path d="M4926 4442 c-3 -5 1 -9 9 -9 8 0 12 4 9 9 -3 4 -7 8 -9 8 -2 0 -6 -4
-9 -8z"/>
<path d="M3346 3768 c3 -5 10 -6 15 -3 13 9 11 12 -6 12 -8 0 -12 -4 -9 -9z"/>
<path d="M3886 3768 c3 -5 10 -6 15 -3 13 9 11 12 -6 12 -8 0 -12 -4 -9 -9z"/>
<path d="M3415 3300 c3 -5 8 -10 11 -10 2 0 4 5 4 10 0 6 -5 10 -11 10 -5 0
-7 -4 -4 -10z"/>
<path d="M3981 3303 c-2 -20 16 -24 30 -5 13 15 12 16 -3 4 -13 -10 -17 -10
-21 0 -4 9 -6 9 -6 1z"/>
<path d="M4141 3303 c-2 -20 16 -24 30 -5 13 15 12 16 -3 4 -13 -10 -17 -10
-21 0 -4 9 -6 9 -6 1z"/>
<path d="M4250 2865 c0 -5 5 -17 10 -25 5 -8 10 -10 10 -5 0 6 -5 17 -10 25
-5 8 -10 11 -10 5z"/>
<path d="M2030 2620 c0 -5 5 -10 10 -10 6 0 10 5 10 10 0 6 -4 10 -10 10 -5 0
-10 -4 -10 -10z"/>
<path d="M1730 2259 c0 -5 5 -7 10 -4 6 3 10 8 10 11 0 2 -4 4 -10 4 -5 0 -10
-5 -10 -11z"/>
<path d="M3267 1953 c-13 -12 -7 -22 8 -17 11 5 13 2 9 -10 -3 -9 -4 -16 -1
-16 3 0 7 6 10 14 6 16 -16 40 -26 29z"/>
<path d="M3507 1953 c-13 -12 -7 -22 8 -17 11 5 13 2 9 -10 -3 -9 -4 -16 -1
-16 3 0 7 6 10 14 6 16 -16 40 -26 29z"/>
<path d="M3212 1937 c-18 -24 -23 -41 -5 -19 15 18 21 20 31 10 8 -8 12 -8 12
-1 0 16 -27 24 -38 10z"/>
<path d="M3448 1932 c-12 -15 -11 -16 5 -3 16 12 22 9 18 -12 -1 -5 3 -6 9 -2
14 9 12 22 -4 28 -8 3 -20 -2 -28 -11z"/>
<path d="M3706 1927 c3 -10 9 -15 12 -12 3 3 0 11 -7 18 -10 9 -11 8 -5 -6z"/>
<path d="M3425 1900 c-3 -6 1 -7 9 -4 18 7 21 14 7 14 -6 0 -13 -4 -16 -10z"/>
<path d="M3665 1900 c-3 -6 1 -7 9 -4 18 7 21 14 7 14 -6 0 -13 -4 -16 -10z"/>
<path d="M1696 1762 c-2 -4 -1 -14 4 -22 7 -11 9 -9 7 8 -1 24 -3 26 -11 14z"/>
<path d="M1036 1727 c3 -10 9 -15 12 -12 3 3 0 11 -7 18 -10 9 -11 8 -5 -6z"/>
<path d="M1705 1700 c3 -5 8 -10 11 -10 2 0 4 5 4 10 0 6 -5 10 -11 10 -5 0
-7 -4 -4 -10z"/>
<path d="M2238 1493 c7 -3 16 -2 19 1 4 3 -2 6 -13 5 -11 0 -14 -3 -6 -6z"/>
<path d="M1116 1458 c3 -5 10 -6 15 -3 13 9 11 12 -6 12 -8 0 -12 -4 -9 -9z"/>
<path d="M1135 1440 c-3 -5 -1 -10 4 -10 6 0 11 5 11 10 0 6 -2 10 -4 10 -3 0
-8 -4 -11 -10z"/>
<path d="M2836 1333 c-6 -14 -5 -15 5 -6 7 7 10 15 7 18 -3 3 -9 -2 -12 -12z"/>
<path d="M2705 890 c-3 -5 1 -10 10 -10 9 0 13 5 10 10 -3 6 -8 10 -10 10 -2
0 -7 -4 -10 -10z"/>
<path d="M2626 558 c3 -5 10 -6 15 -3 13 9 11 12 -6 12 -8 0 -12 -4 -9 -9z"/>
<path d="M2605 510 c-3 -5 -1 -10 4 -10 6 0 11 5 11 10 0 6 -2 10 -4 10 -3 0
-8 -4 -11 -10z"/>
<path d="M2150 366 c0 -2 7 -7 16 -10 8 -3 12 -2 9 4 -6 10 -25 14 -25 6z"/>
<path d="M1490 340 c0 -5 5 -10 11 -10 5 0 7 5 4 10 -3 6 -8 10 -11 10 -2 0
-4 -4 -4 -10z"/>
<path d="M2546 278 c3 -5 10 -6 15 -3 13 9 11 12 -6 12 -8 0 -12 -4 -9 -9z"/>
</g>
</svg>
